/* XPM */
static char * exit_xpm[] = {
"64 64 492 2",
"  	c #000000",
". 	c #010101",
"+ 	c #020202",
"@ 	c #020205",
"# 	c #010202",
"$ 	c #050301",
"% 	c #030303",
"& 	c #040404",
"* 	c #030302",
"= 	c #0D1319",
"- 	c #27313B",
"; 	c #111518",
"> 	c #030404",
", 	c #080808",
"' 	c #070707",
") 	c #040406",
"! 	c #090907",
"~ 	c #18150E",
"{ 	c #2E373B",
"] 	c #303C42",
"^ 	c #232018",
"/ 	c #211D12",
"( 	c #131110",
"_ 	c #050505",
": 	c #050706",
"< 	c #060606",
"[ 	c #090909",
"} 	c #090708",
"| 	c #201E16",
"1 	c #2C2C1D",
"2 	c #2F291F",
"3 	c #27251C",
"4 	c #212016",
"5 	c #201E11",
"6 	c #2D2B1E",
"7 	c #2D291E",
"8 	c #0E0C07",
"9 	c #0A0A0A",
"0 	c #040506",
"a 	c #090B0E",
"b 	c #070709",
"c 	c #0F0B0C",
"d 	c #0B0C08",
"e 	c #211F12",
"f 	c #1B1810",
"g 	c #181213",
"h 	c #0C0307",
"i 	c #0B0406",
"j 	c #2F240C",
"k 	c #584A1B",
"l 	c #322313",
"m 	c #1B1115",
"n 	c #0A0607",
"o 	c #040202",
"p 	c #040305",
"q 	c #050406",
"r 	c #050707",
"s 	c #070505",
"t 	c #050608",
"u 	c #080C10",
"v 	c #0C090A",
"w 	c #282621",
"x 	c #1B110C",
"y 	c #0D0807",
"z 	c #0C0803",
"A 	c #3B3834",
"B 	c #516676",
"C 	c #715734",
"D 	c #835D21",
"E 	c #967732",
"F 	c #523513",
"G 	c #442612",
"H 	c #4A2B12",
"I 	c #3B230F",
"J 	c #321E10",
"K 	c #1D120D",
"L 	c #040503",
"M 	c #050404",
"N 	c #000101",
"O 	c #090405",
"P 	c #030608",
"Q 	c #110D0E",
"R 	c #4A4032",
"S 	c #89816D",
"T 	c #2D2015",
"U 	c #2E2216",
"V 	c #655433",
"W 	c #879B95",
"X 	c #ABA07A",
"Y 	c #835C3C",
"Z 	c #925F31",
"` 	c #69563E",
" .	c #C2B57D",
"..	c #A9A077",
"+.	c #5D6B66",
"@.	c #2C373C",
"#.	c #0E0703",
"$.	c #180E0B",
"%.	c #030301",
"&.	c #030403",
"*.	c #070406",
"=.	c #160C10",
"-.	c #0F0A0B",
";.	c #0E090B",
">.	c #1A1215",
",.	c #050609",
"'.	c #25170F",
").	c #665541",
"!.	c #746B56",
"~.	c #3A2C22",
"{.	c #4E4933",
"].	c #D1BC7F",
"^.	c #EDE2BF",
"/.	c #D0D3C2",
"(.	c #E6E2C0",
"_.	c #EFDFA3",
":.	c #E0C779",
"<.	c #DABA5E",
"[.	c #AC8C46",
"}.	c #6D6D56",
"|.	c #373C31",
"1.	c #231819",
"2.	c #0C0F14",
"3.	c #2C1B14",
"4.	c #46260E",
"5.	c #2F1E0F",
"6.	c #0C0708",
"7.	c #150F12",
"8.	c #010000",
"9.	c #030101",
"0.	c #10090C",
"a.	c #181013",
"b.	c #0B0709",
"c.	c #070507",
"d.	c #3D2412",
"e.	c #794E24",
"f.	c #58492C",
"g.	c #3F3C31",
"h.	c #AEA56F",
"i.	c #ECE7DB",
"j.	c #F2EFE9",
"k.	c #F8F4C5",
"l.	c #EEE0B9",
"m.	c #E4DAB1",
"n.	c #F5EEC9",
"o.	c #FDF4C9",
"p.	c #F1E6A2",
"q.	c #CFBB75",
"r.	c #76602D",
"s.	c #482E25",
"t.	c #92642A",
"u.	c #6E4B27",
"v.	c #462911",
"w.	c #543014",
"x.	c #3F2511",
"y.	c #0D0A09",
"z.	c #040604",
"A.	c #040101",
"B.	c #030100",
"C.	c #0F080A",
"D.	c #1C1416",
"E.	c #191314",
"F.	c #1E1010",
"G.	c #7D4A22",
"H.	c #AA763A",
"I.	c #5A563C",
"J.	c #897232",
"K.	c #E2CB79",
"L.	c #F9F2CA",
"M.	c #F1EEC8",
"N.	c #B1AD93",
"O.	c #332719",
"P.	c #1C1716",
"Q.	c #484847",
"R.	c #777060",
"S.	c #D2C59B",
"T.	c #F8F3C0",
"U.	c #EDD8A0",
"V.	c #817448",
"W.	c #976B28",
"X.	c #C3812E",
"Y.	c #99672D",
"Z.	c #251508",
"`.	c #2F1E14",
" +	c #3A2313",
".+	c #0C0502",
"++	c #050605",
"@+	c #1E262D",
"#+	c #0F171D",
"$+	c #040303",
"%+	c #140C0E",
"&+	c #180F12",
"*+	c #070706",
"=+	c #373C46",
"-+	c #30353A",
";+	c #986225",
">+	c #C18F47",
",+	c #655839",
"'+	c #E2BC44",
")+	c #F4E5AD",
"!+	c #F5F1CA",
"~+	c #726D60",
"{+	c #030606",
"]+	c #040909",
"^+	c #151A22",
"/+	c #0C1619",
"(+	c #020C0F",
"_+	c #231F12",
":+	c #C7B88E",
"<+	c #FCF6CA",
"[+	c #C7B367",
"}+	c #A39665",
"|+	c #533A2A",
"1+	c #A06C2C",
"2+	c #5E3714",
"3+	c #2D170E",
"4+	c #492E18",
"5+	c #271610",
"6+	c #020604",
"7+	c #040403",
"8+	c #0C1014",
"9+	c #040609",
"0+	c #040605",
"a+	c #0E0706",
"b+	c #432A1A",
"c+	c #392311",
"d+	c #9C622A",
"e+	c #CA9847",
"f+	c #5E5129",
"g+	c #EAC560",
"h+	c #FBF3C9",
"i+	c #D8D6B2",
"j+	c #161812",
"k+	c #010405",
"l+	c #0F141A",
"m+	c #0E151B",
"n+	c #010808",
"o+	c #020505",
"p+	c #010406",
"q+	c #5B4F3B",
"r+	c #F2EFC8",
"s+	c #E3D69C",
"t+	c #E8D38E",
"u+	c #756D50",
"v+	c #2D1C16",
"w+	c #51311B",
"x+	c #301E0D",
"y+	c #0F0504",
"z+	c #261716",
"A+	c #150D0A",
"B+	c #0B0B0B",
"C+	c #060605",
"D+	c #422A15",
"E+	c #9B5D20",
"F+	c #B2782C",
"G+	c #C28632",
"H+	c #664E26",
"I+	c #DCBB5B",
"J+	c #FBF5C6",
"K+	c #B4B399",
"L+	c #030506",
"M+	c #05080E",
"N+	c #131921",
"O+	c #030A09",
"P+	c #010706",
"Q+	c #02050A",
"R+	c #040607",
"S+	c #666657",
"T+	c #F1EDC5",
"U+	c #F5F0E0",
"V+	c #EDD187",
"W+	c #A48547",
"X+	c #4B3C2D",
"Y+	c #211317",
"Z+	c #170D12",
"`+	c #1A0E13",
" @	c #11090D",
".@	c #050206",
"+@	c #543616",
"@@	c #AD782C",
"#@	c #C9832F",
"$@	c #8B5B2D",
"%@	c #AC8B40",
"&@	c #F2DD97",
"*@	c #C6B899",
"=@	c #1D1711",
"-@	c #081217",
";@	c #0E171B",
">@	c #010506",
",@	c #020607",
"'@	c #010608",
")@	c #3A3A30",
"!@	c #E7E8C6",
"~@	c #FBF5D4",
"{@	c #ECEFF0",
"]@	c #D8AD6A",
"^@	c #BA8239",
"/@	c #6E5634",
"(@	c #130D0D",
"_@	c #0F0707",
":@	c #1A1113",
"<@	c #1D1115",
"[@	c #080506",
"}@	c #040505",
"|@	c #050303",
"1@	c #110B0D",
"2@	c #070303",
"3@	c #351F25",
"4@	c #5A3827",
"5@	c #543520",
"6@	c #AB7731",
"7@	c #E5C25B",
"8@	c #F8F0C0",
"9@	c #C2BB98",
"0@	c #71705E",
"a@	c #272521",
"b@	c #010409",
"c@	c #03070C",
"d@	c #1A120E",
"e@	c #A59E88",
"f@	c #FBF7CB",
"g@	c #ECDE9A",
"h@	c #DAD3CD",
"i@	c #A77E53",
"j@	c #AC823E",
"k@	c #644923",
"l@	c #080608",
"m@	c #11080A",
"n@	c #1D1318",
"o@	c #080707",
"p@	c #090606",
"q@	c #12110F",
"r@	c #070403",
"s@	c #41271F",
"t@	c #412614",
"u@	c #2B1515",
"v@	c #352029",
"w@	c #705743",
"x@	c #CFA469",
"y@	c #E8BC5A",
"z@	c #E9C955",
"A@	c #F5E5A5",
"B@	c #FCF9D3",
"C@	c #D9D9B5",
"D@	c #A9A58B",
"E@	c #B4A784",
"F@	c #DED6B1",
"G@	c #F7F0B7",
"H@	c #EFD177",
"I@	c #EBC04A",
"J@	c #A48035",
"K@	c #3D3731",
"L@	c #5D4C2C",
"M@	c #5A371E",
"N@	c #26190C",
"O@	c #19120B",
"P@	c #1D1014",
"Q@	c #140E0D",
"R@	c #010100",
"S@	c #0E080A",
"T@	c #1C1215",
"U@	c #120D0D",
"V@	c #050503",
"W@	c #0E0907",
"X@	c #77471F",
"Y@	c #86501F",
"Z@	c #311F1E",
"`@	c #716760",
" #	c #C4C3A3",
".#	c #B7AD85",
"+#	c #534925",
"@#	c #978D5B",
"##	c #EEDC97",
"$#	c #F9EBB5",
"%#	c #F9EEBD",
"&#	c #FAECB7",
"*#	c #F2DC97",
"=#	c #EFC85C",
"-#	c #EAC348",
";#	c #E1B750",
">#	c #8F7345",
",#	c #242B2D",
"'#	c #191915",
")#	c #4A2B15",
"!#	c #140705",
"~#	c #130F14",
"{#	c #2B2622",
"]#	c #6D6C60",
"^#	c #030203",
"/#	c #060506",
"(#	c #060406",
"_#	c #181316",
":#	c #341F16",
"<#	c #0A0603",
"[#	c #070409",
"}#	c #120D11",
"|#	c #6A4924",
"1#	c #A06E2E",
"2#	c #AA742A",
"3#	c #E2BA50",
"4#	c #EDC551",
"5#	c #EAC953",
"6#	c #EBC84B",
"7#	c #DFBA45",
"8#	c #E9BF4C",
"9#	c #DAAB41",
"0#	c #C89841",
"a#	c #66502C",
"b#	c #161418",
"c#	c #0D1015",
"d#	c #100A07",
"e#	c #100B0C",
"f#	c #090809",
"g#	c #0D0E0B",
"h#	c #1C1D19",
"i#	c #020203",
"j#	c #000201",
"k#	c #0A0809",
"l#	c #211513",
"m#	c #25171B",
"n#	c #1B1519",
"o#	c #1E1C21",
"p#	c #261B20",
"q#	c #372624",
"r#	c #553624",
"s#	c #926129",
"t#	c #B28432",
"u#	c #BC9544",
"v#	c #DFB84D",
"w#	c #E5B845",
"x#	c #D59F3A",
"y#	c #C78834",
"z#	c #A9742F",
"A#	c #52371D",
"B#	c #140B0E",
"C#	c #080A12",
"D#	c #0C0C12",
"E#	c #151112",
"F#	c #010201",
"G#	c #010001",
"H#	c #0F0C0C",
"I#	c #180D11",
"J#	c #201317",
"K#	c #211419",
"L#	c #211318",
"M#	c #060404",
"N#	c #030202",
"O#	c #030204",
"P#	c #7E7D6B",
"Q#	c #E6DBB0",
"R#	c #E7E0B5",
"S#	c #A79E74",
"T#	c #835C23",
"U#	c #A26F29",
"V#	c #684422",
"W#	c #251D15",
"X#	c #222019",
"Y#	c #070606",
"Z#	c #08070C",
"`#	c #0C0B11",
" $	c #0B0809",
".$	c #160E11",
"+$	c #0A0507",
"@$	c #130E0F",
"#$	c #11090C",
"$$	c #140A09",
"%$	c #1C0F0C",
"&$	c #1C0E0C",
"*$	c #090707",
"=$	c #151411",
"-$	c #353429",
";$	c #333123",
">$	c #212216",
",$	c #2F271A",
"'$	c #3D3326",
")$	c #302E20",
"!$	c #2E2C1D",
"~$	c #201D12",
"{$	c #070804",
"]$	c #050504",
"^$	c #130B0E",
"/$	c #201110",
"($	c #291815",
"_$	c #271815",
":$	c #14100D",
"<$	c #1E1A13",
"[$	c #2F261F",
"}$	c #2A231B",
"|$	c #17140E",
"1$	c #040405",
"2$	c #070608",
"3$	c #050506",
"                                                                                                                                ",
"                                                                                                                                ",
"                                                                                                                                ",
"                                                                                                                                ",
"                                                                                                                                ",
"                                                                                                                                ",
"                                                                                                                                ",
"                                                                                                                                ",
"                                                                                                                                ",
"                                                                                                                                ",
"                                                                                                                                ",
"                                                                                                                                ",
"                                                                                                                                ",
"                                                                                                                                ",
"                                                                                                                                ",
"                                                                                                                                ",
"                                                                                                                                ",
"                                                                                                                                ",
"                                                                                                                                ",
"                                                                                                                                ",
"                                                  . . + @ # . $ # . .                   . .                                     ",
"                                                . + % & * = - ; % > % % + + . . .       % , ' +                                 ",
"                                        .   % + % % ) ! ~ { ] ^ / ( _ : & & % & % + .   . & < %                                 ",
"                                          . [ < _ } | 1 2 3 4 5 6 7 8 ) & & % 9 & & % .     . .                                 ",
"                                        % 0 a b c d e f g h i j k l m n o p q r s & & + . . .                                   ",
"                                      + % t u v w x y z A B C D E F G H I J K L M & & % & < %                                   ",
"                                    N % O P Q R S T U V W X Y Z `  ...+.@.#.$.%.& &.*.=.-.> . .                                 ",
"                                    + ;.>.,.'.).!.~.{.].^./.(._.:.<.[.}.|.1.2.3.4.5.6.7.c % .                                   ",
"                              . 8.9.0.a.b.c.d.e.f.g.h.i.j.k.l.m.n.o.p.q.r.s.t.u.v.w.x.y.z.M > A.B.                              ",
"                                9.C.D.;.E.F.G.H.I.J.K.L.M.N.O.P.Q.R.S.T.U.V.W.X.Y.Z.`. +.+++_ @+#+                              ",
"                    .         . $+%+&+*+=+-+;+>+,+'+)+!+~+{+]+^+/+(+_+:+<+[+}+|+1+2+3+4+5+6+7+8+9+                              ",
"                    . %       + % M 0+a+b+c+d+e+f+g+h+i+j+k+l+m+n+o+p+q+r+s+t+u+v+w+x+y+z+A+% +                                 ",
"                    . . B+      + & _ C+D+E+F+G+H+I+J+K+L+M+N+O+P+Q+R+S+T+U+V+W+X+Y+Z+o `+ @. . . .                             ",
"                    . % .       + & B+9 .@+@@@#@$@%@&@*@=@-@;@>@,@'@)@!@~@{@]@^@/@(@_@:@<@[@+   . .                             ",
"                      .       8.% }@*+|@1@2@3@4@5@6@7@8@9@0@a@b@c@d@e@f@g@h@i@j@k@o l@m@n@s + . .                               ",
"                              _ o@p@q@r@s@t@u@v@w@x@y@z@A@B@C@D@E@F@G@H@I@J@K@L@M@N@O@P@Q@& . .                                 ",
"                    .   .     R@S@T@U@V@W@X@Y@Z@`@ #.#+#@###$#%#&#*#=#-#;#>#,#'#)#!#~#{#]#&.% .                                 ",
"                    . . , , .   ^#/#_ % (#_#:#<#[#}#|#1#2#3#4#5#6#7#8#9#0#a#b#c#d#e#f#g#h#i#. .                                 ",
"                        & % . N j#> , ^#k#l#m#n#o#[@p#q#r#s#t#u#v#w#x#y#z#A#B#C#D#E#f#7+# F#.                                   ",
"                                  G#% H#m I#J#K#L#M#& N#O#P#Q#R#S#T#U#V#W#X#Y#Z#`#' & .                                         ",
"                                    R@ $.$+$o@@$#$$$%$&$*$=$-$;$>$,$'$)$!$~${$]$) % .                                           ",
"                                    . . + % % ' ^$/$($_$e#O :$<$^ [$}$|$' % & % +                                               ",
"                                    . + .   8.+ > 1$2$3$& _ + ]$+ (#) > %   .                                                   ",
"                                              . + % % % + . . + + + + .                                                         ",
"                                                  .     .                                                                       ",
"                                                                                                                                ",
"                                                                                                                                ",
"                                                                                                                                ",
"                                                                                                                                ",
"                                                                                                                                ",
"                                                                                                                                ",
"                                                                                                                                ",
"                                                                                                                                ",
"                                                                                                                                ",
"                                                                                                                                ",
"                                                                                                                                ",
"                                                                                                                                ",
"                                                                                                                                ",
"                                                                                                                                ",
"                                                                                                                                ",
"                                                                                                                                ",
"                                                                                                                                ",
"                                                                                                                                ",
"                                                                                                                                "};
