/* XPM */
static char * wall_xpm[] = {
"64 64 637 2",
"  	c #13102B",
". 	c #14102B",
"+ 	c #12122E",
"@ 	c #161332",
"# 	c #15132E",
"$ 	c #1D1E35",
"% 	c #14112D",
"& 	c #1D102A",
"* 	c #13102C",
"= 	c #18102B",
"- 	c #13122D",
"; 	c #111937",
"> 	c #13112B",
", 	c #21233D",
"' 	c #455167",
") 	c #161231",
"! 	c #13112C",
"~ 	c #17102B",
"{ 	c #2F0F27",
"] 	c #14122C",
"^ 	c #1D2035",
"/ 	c #161334",
"( 	c #320F27",
"_ 	c #14112C",
": 	c #14102C",
"< 	c #121734",
"[ 	c #0E2954",
"} 	c #121530",
"| 	c #161434",
"1 	c #181832",
"2 	c #2A2F49",
"3 	c #13122F",
"4 	c #161232",
"5 	c #1C1F34",
"6 	c #475969",
"7 	c #14112E",
"8 	c #181033",
"9 	c #111A38",
"0 	c #0D2F5C",
"a 	c #111733",
"b 	c #1F2337",
"c 	c #15142E",
"d 	c #122348",
"e 	c #2C125A",
"f 	c #161030",
"g 	c #12122D",
"h 	c #12112C",
"i 	c #1B1D33",
"j 	c #495868",
"k 	c #15132D",
"l 	c #172241",
"m 	c #19447C",
"n 	c #13122E",
"o 	c #171132",
"p 	c #131330",
"q 	c #1C1E33",
"r 	c #171032",
"s 	c #292E49",
"t 	c #14122D",
"u 	c #12142F",
"v 	c #15102F",
"w 	c #295482",
"x 	c #377BC0",
"y 	c #152245",
"z 	c #161032",
"A 	c #112550",
"B 	c #13132F",
"C 	c #435260",
"D 	c #191932",
"E 	c #47546D",
"F 	c #17162F",
"G 	c #151530",
"H 	c #15122F",
"I 	c #261253",
"J 	c #161132",
"K 	c #171730",
"L 	c #131B3C",
"M 	c #2968AB",
"N 	c #3C8EDC",
"O 	c #143466",
"P 	c #16162E",
"Q 	c #2C3345",
"R 	c #1E1F37",
"S 	c #14142F",
"T 	c #243253",
"U 	c #14112F",
"V 	c #151030",
"W 	c #421388",
"X 	c #211148",
"Y 	c #333B52",
"Z 	c #1A1934",
"` 	c #13112D",
" .	c #1C335A",
"..	c #235998",
"+.	c #141736",
"@.	c #16152E",
"#.	c #122247",
"$.	c #161733",
"%.	c #2A4063",
"&.	c #14132D",
"*.	c #161230",
"=.	c #151231",
"-.	c #251152",
";.	c #414D62",
">.	c #1E1F38",
",.	c #141634",
"'.	c #122F5C",
").	c #310F27",
"!.	c #151C3B",
"~.	c #1A447C",
"{.	c #191D3A",
"].	c #171934",
"^.	c #14102F",
"/.	c #1B1C34",
"(.	c #131534",
"_.	c #1A102A",
":.	c #20406B",
"<.	c #3C82CA",
"[.	c #16284D",
"}.	c #181E3C",
"|.	c #2D496D",
"1.	c #15112F",
"2.	c #1F5A99",
"3.	c #4094E5",
"4.	c #154078",
"5.	c #1C2040",
"6.	c #1B1E3E",
"7.	c #191740",
"8.	c #182B50",
"9.	c #28609E",
"0.	c #151C3C",
"a.	c #1C2442",
"b.	c #2D496F",
"c.	c #171133",
"d.	c #18112B",
"e.	c #320F26",
"f.	c #330F26",
"g.	c #18102A",
"h.	c #141330",
"i.	c #15142D",
"j.	c #23204F",
"k.	c #171436",
"l.	c #141532",
"m.	c #12305D",
"n.	c #304C72",
"o.	c #1B2341",
"p.	c #211448",
"q.	c #2A1555",
"r.	c #121E46",
"s.	c #12193C",
"t.	c #25293C",
"u.	c #1B1945",
"v.	c #403C8D",
"w.	c #2B2764",
"x.	c #141635",
"y.	c #1F2744",
"z.	c #3B5676",
"A.	c #171234",
"B.	c #1A133A",
"C.	c #14132F",
"D.	c #131331",
"E.	c #17172F",
"F.	c #21263A",
"G.	c #2F2C6A",
"H.	c #1B193F",
"I.	c #191037",
"J.	c #161731",
"K.	c #345279",
"L.	c #1E2643",
"M.	c #1B1C32",
"N.	c #151230",
"O.	c #26395E",
"P.	c #151430",
"Q.	c #1D1B49",
"R.	c #141230",
"S.	c #2A1257",
"T.	c #161031",
"U.	c #253857",
"V.	c #3D5F82",
"W.	c #14122E",
"X.	c #1A1C33",
"Y.	c #414E5E",
"Z.	c #19213D",
"`.	c #4983B9",
" +	c #1B2442",
".+	c #161331",
"++	c #1F2D4B",
"@+	c #3C6491",
"#+	c #233451",
"$+	c #303949",
"%+	c #11234F",
"&+	c #191438",
"*+	c #151631",
"=+	c #2E4870",
"-+	c #161732",
";+	c #151332",
">+	c #1B1841",
",+	c #20233D",
"'+	c #151831",
")+	c #4579A7",
"!+	c #4B87BA",
"~+	c #161832",
"{+	c #17162E",
"]+	c #301B65",
"^+	c #161833",
"/+	c #15102E",
"(+	c #15102B",
"_+	c #11234E",
":+	c #4C5B73",
"<+	c #191E36",
"[+	c #5D99C9",
"}+	c #3D6C97",
"|+	c #21194B",
"1+	c #151130",
"2+	c #211145",
"3+	c #171033",
"4+	c #1B102A",
"5+	c #22102A",
"6+	c #20223A",
"7+	c #161730",
"8+	c #426588",
"9+	c #284061",
"0+	c #14112B",
"a+	c #15112E",
"b+	c #231148",
"c+	c #181034",
"d+	c #171539",
"e+	c #241029",
"f+	c #181830",
"g+	c #1B213A",
"h+	c #151732",
"i+	c #1A1A34",
"j+	c #1C1C35",
"k+	c #16152F",
"l+	c #171537",
"m+	c #24235E",
"n+	c #2F3648",
"o+	c #323D4E",
"p+	c #131838",
"q+	c #363F58",
"r+	c #3D485E",
"s+	c #15132F",
"t+	c #2F354F",
"u+	c #171531",
"v+	c #1B1A48",
"w+	c #2C2C77",
"x+	c #25293D",
"y+	c #272E40",
"z+	c #141735",
"A+	c #133362",
"B+	c #1B1C36",
"C+	c #14102E",
"D+	c #181632",
"E+	c #45516A",
"F+	c #1B1B37",
"G+	c #18172F",
"H+	c #455464",
"I+	c #171538",
"J+	c #24235F",
"K+	c #16102C",
"L+	c #16173C",
"M+	c #161B41",
"N+	c #1C355C",
"O+	c #2C66A6",
"P+	c #141C3B",
"Q+	c #201144",
"R+	c #1D1E36",
"S+	c #272C3F",
"T+	c #19163C",
"U+	c #2B1029",
"V+	c #16112F",
"W+	c #241539",
"X+	c #161A3D",
"Y+	c #171E46",
"Z+	c #2361A5",
"`+	c #3D91E2",
" @	c #143D73",
".@	c #231149",
"+@	c #181035",
"@@	c #16102B",
"#@	c #291638",
"$@	c #5B1838",
"%@	c #23436D",
"&@	c #377ABF",
"*@	c #162142",
"=@	c #161333",
"-@	c #1A122E",
";@	c #521F3A",
">@	c #862F38",
",@	c #271331",
"'@	c #151D3C",
")@	c #184076",
"!@	c #151330",
"~@	c #171034",
"{@	c #37183C",
"]@	c #9A4341",
"^@	c #BA6743",
"/@	c #601C3E",
"(@	c #122144",
"_@	c #201D49",
":@	c #24283C",
"<@	c #424F60",
"[@	c #201247",
"}@	c #14102D",
"|@	c #181433",
"1@	c #171433",
"2@	c #24173D",
"3@	c #612F48",
"4@	c #955146",
"5@	c #391A42",
"6@	c #181435",
"7@	c #1F213B",
"8@	c #1A1735",
"9@	c #171434",
"0@	c #171535",
"a@	c #191537",
"b@	c #262356",
"c@	c #181434",
"d@	c #1C1B37",
"e@	c #282C44",
"f@	c #191436",
"g@	c #1D1440",
"h@	c #3B147A",
"i@	c #1C143D",
"j@	c #181535",
"k@	c #1A1436",
"l@	c #3F1A3E",
"m@	c #792139",
"n@	c #1E1537",
"o@	c #465467",
"p@	c #292E45",
"q@	c #191536",
"r@	c #1D1740",
"s@	c #181536",
"t@	c #393680",
"u@	c #1F1C47",
"v@	c #191636",
"w@	c #311469",
"x@	c #5D16B6",
"y@	c #2F1464",
"z@	c #1F1444",
"A@	c #23163C",
"B@	c #42183C",
"C@	c #22233E",
"D@	c #1A1837",
"E@	c #1B173D",
"F@	c #2D195E",
"G@	c #1A1638",
"H@	c #21233E",
"I@	c #1A173B",
"J@	c #312D6B",
"K@	c #4B48A4",
"L@	c #302D6A",
"M@	c #1A173C",
"N@	c #201447",
"O@	c #491595",
"P@	c #1F1443",
"Q@	c #191437",
"R@	c #1F183E",
"S@	c #1B163C",
"T@	c #271954",
"U@	c #4C5A6E",
"V@	c #20213D",
"W@	c #181436",
"X@	c #1E1A43",
"Y@	c #353275",
"Z@	c #1D1A42",
"`@	c #181638",
" #	c #251450",
".#	c #242151",
"+#	c #162450",
"@#	c #211449",
"##	c #1B173B",
"$#	c #1E1741",
"%#	c #261954",
"&#	c #1F1C46",
"*#	c #1B173C",
"=#	c #251750",
"-#	c #1A1D45",
";#	c #1C173D",
">#	c #1C183D",
",#	c #2B195F",
"'#	c #421988",
")#	c #1D183F",
"!#	c #20183C",
"~#	c #1C183E",
"{#	c #201F41",
"]#	c #1D1A3E",
"^#	c #201845",
"/#	c #46168E",
"(#	c #1F1843",
"_#	c #211949",
":#	c #2F1967",
"<#	c #371637",
"[#	c #1D1940",
"}#	c #201D4E",
"|#	c #3D465E",
"1#	c #262746",
"2#	c #1D1840",
"3#	c #2F1764",
"4#	c #1E1843",
"5#	c #20183D",
"6#	c #1E1B47",
"7#	c #262564",
"8#	c #1C193D",
"9#	c #232345",
"0#	c #383F58",
"a#	c #242444",
"b#	c #1E1841",
"c#	c #1F1B44",
"d#	c #1E1A40",
"e#	c #1C1A40",
"f#	c #221F51",
"g#	c #2B2A72",
"h#	c #47536E",
"i#	c #1F1C40",
"j#	c #1F1E40",
"k#	c #1D193E",
"l#	c #24204F",
"m#	c #201C46",
"n#	c #1C193F",
"o#	c #182858",
"p#	c #1E1A44",
"q#	c #24225B",
"r#	c #1E1A3F",
"s#	c #313556",
"t#	c #2F2C69",
"u#	c #28265A",
"v#	c #1C173E",
"w#	c #1D183E",
"x#	c #212042",
"y#	c #1C1A41",
"z#	c #1D1941",
"A#	c #1E1B40",
"B#	c #262355",
"C#	c #444094",
"D#	c #3D3A87",
"E#	c #262253",
"F#	c #1F1A44",
"G#	c #232149",
"H#	c #3E4967",
"I#	c #1F1A45",
"J#	c #241C48",
"K#	c #353378",
"L#	c #2E2B68",
"M#	c #201C49",
"N#	c #1E1B46",
"O#	c #22214A",
"P#	c #3D4564",
"Q#	c #231B46",
"R#	c #4A1C46",
"S#	c #241B46",
"T#	c #262458",
"U#	c #232051",
"V#	c #1E1C46",
"W#	c #222149",
"X#	c #1F1B46",
"Y#	c #221B46",
"Z#	c #3B1B42",
"`#	c #7C2743",
" $	c #3E1B42",
".$	c #221F4C",
"+$	c #2A1B45",
"@$	c #201B47",
"#$	c #1F1D46",
"$$	c #25264C",
"%$	c #211B45",
"&$	c #38183F",
"*$	c #201C47",
"=$	c #5D2347",
"-$	c #A05D4A",
";$	c #5C2346",
">$	c #221C48",
",$	c #321B44",
"'$	c #221B47",
")$	c #25264D",
"!$	c #4B5774",
"~$	c #212049",
"{$	c #1F1B48",
"]$	c #221B45",
"^$	c #1E1C47",
"/$	c #231C49",
"($	c #772441",
"_$	c #B86F49",
":$	c #792542",
"<$	c #241D49",
"[$	c #221C4F",
"}$	c #1F1C48",
"|$	c #211B46",
"1$	c #201D48",
"2$	c #2C2D53",
"3$	c #232151",
"4$	c #46536F",
"5$	c #33385A",
"6$	c #201B49",
"7$	c #291B59",
"8$	c #1E1C48",
"9$	c #1D2354",
"0$	c #441B41",
"a$	c #833043",
"b$	c #461B41",
"c$	c #1E1D49",
"d$	c #211C4B",
"e$	c #341D6D",
"f$	c #201C4A",
"g$	c #262459",
"h$	c #25254C",
"i$	c #211F49",
"j$	c #201B4A",
"k$	c #1C2354",
"l$	c #261B46",
"m$	c #5B1C45",
"n$	c #271B46",
"o$	c #1B295D",
"p$	c #1E1E4A",
"q$	c #312066",
"r$	c #2F2061",
"s$	c #24244B",
"t$	c #242255",
"u$	c #37347B",
"v$	c #281D4A",
"w$	c #1E1D4A",
"x$	c #331D6A",
"y$	c #231C4D",
"z$	c #211F48",
"A$	c #45506C",
"B$	c #242153",
"C$	c #38357D",
"D$	c #4B47A3",
"E$	c #2B2963",
"F$	c #201D4A",
"G$	c #1F1C49",
"H$	c #281E59",
"I$	c #231D51",
"J$	c #1F1D48",
"K$	c #232A53",
"L$	c #211E49",
"M$	c #363D5D",
"N$	c #231F51",
"O$	c #241F53",
"P$	c #231F52",
"Q$	c #27245B",
"R$	c #242054",
"S$	c #251F55",
"T$	c #352373",
"U$	c #252056",
"V$	c #242455",
"W$	c #3F6A9A",
"X$	c #252858",
"Y$	c #252253",
"Z$	c #2D1F62",
"`$	c #292A57",
" %	c #242052",
".%	c #29265F",
"+%	c #231F53",
"@%	c #372472",
"#%	c #362071",
"$%	c #252556",
"%%	c #4474A6",
"&%	c #262A5A",
"*%	c #2E1F65",
"=%	c #241F54",
"-%	c #4D5C7C",
";%	c #292957",
">%	c #27235A",
",%	c #271F59",
"'%	c #321E6C",
")%	c #4D5D7C",
"!%	c #2C2262",
"~%	c #43258A",
"{%	c #28205A",
"]%	c #232052",
"^%	c #282F5E",
"/%	c #242053",
"(%	c #2E2E5B",
"_%	c #2A2C58",
":%	c #261F56",
"<%	c #2B2C58",
"[%	c #252157",
"}%	c #27215A",
"|%	c #50259D",
"1%	c #48248E",
"2%	c #4D5B7A",
"3%	c #3B3782",
"4%	c #262258",
"5%	c #3E227F",
"6%	c #6423BE",
"7%	c #35236F",
"8%	c #252254",
"9%	c #363A62",
"0%	c #2A2A57",
"a%	c #232053",
"b%	c #242456",
"c%	c #252156",
"d%	c #454198",
"e%	c #29245D",
"f%	c #452787",
"g%	c #5C25B1",
"h%	c #272058",
"i%	c #282756",
"j%	c #495575",
"k%	c #21265C",
"l%	c #293764",
"m%	c #324C7A",
"n%	c #232054",
"o%	c #2A255F",
"p%	c #2C2260",
"q%	c #33246F",
"r%	c #282856",
"s%	c #21285F",
"t%	c #33507D",
"u%	c #4475A8",
"v%	c #4F5B7A",
"w%	c #1F2B66",
"x%	c #222155",
"y%	c #21275F",
"z%	c #241F52",
"A%	c #251F52",
"B%	c #2A2957",
"C%	c #283261",
"D%	c #2A2A58",
"E%	c #2C2C59",
"F%	c #222054",
"G%	c #2A1E50",
"H%	c #311E4F",
"I%	c #2A2B57",
"J%	c #4F5B7B",
"K%	c #4E5D7D",
"L%	c #2B1E50",
"M%	c #271E51",
"N%	c #2C1E4F",
"O%	c #371D4C",
"P%	c #232154",
"Q%	c #261F52",
"R%	c #351E6F",
"S%	c #202C66",
"T%	c #251F56",
"                                                                                                                  .             ",
"                                                        +     @                     # $       %                 . &             ",
"  *                   =                               - ; >             *           , '       ) !         *     ~ {     ] ^     ",
"  /                   ( ~ %                   _ :     < [ }       >     | *         1 2       *         3 4 *     ~     5 6     ",
"  *                   =   7 8 *               % %     9 0 a     ] b     *           ! c               3 d               ] ^     ",
"                          _ e f #                     g 9 h     i j k                                 l m n           o * p     ",
"    ] q                     r # s t               _     u       ] ^           v                     p w x y           e z A B   ",
"    i C                       D E F         G     H                         * I J   K _             L M N O !         r * p *   ",
"    P Q       n               _ R !       S T t   >                 7     U V W X   Y Z             `  ...+.                =   ",
"      @.    n #.                          $.%.&.                    *.*   =.* -.z   ;.>.              ,.'.                ~ ).  ",
"            !.~.B                       t {.].                H     *     *   ^.    /.t               ! (.      *         . _.  ",
"          ` :.<.[.*     * *             }.|.                  1.                                > %     >       *.%   %         ",
"          (.2.3.4.-     % %           t 5.6.        =           = .                       H     % *.            *     7.`       ",
"          ! 8.9.0.                    a.b.% 1.c.t d.e.          f.g.                      h.`     *       i.q       7 j.k.      ",
"            l.m.!                   c n.o.  p.q.H % =           =   * *                   r.s.            t.C       u.v.w.7     ",
"    *       ! x.                    y.z.&.  A.B.                    *         C.          D.n             E.F.      =.G.H.*     ",
"    I.:       *                   J.K.L.    * *   _ M.              N.      C.O.P.  %                 %     ]         Q.R.      ",
"    S.T.                        _ U.V.W.          X.Y.      p       * *     Z.`. +                  * .+              U     * % ",
"    J *               *       ! ++@+#+            E.$+      %+3       &+%   *+=+-+                                          ;+>+",
"          p *       ] ,+_     '+)+!+~+            > {+      p *     % ]+A.    ^+>           /+*             . (+            * 7 ",
"          _+p       X.:+F     <+[+}+!                               : |+1+                  2+3+      *     4+5+                ",
"          p     H   ] 6+!     7+8+9+                          0+      a+    *               b+c+    % d+    & e+        {+f+    ",
"                *             > g+h+  *         >       i+j+  N.        k+* %               /+:     l+m+!   . (+        n+o+    ",
"                                      .+%     ! p+      q+r+          s+t+u+      > 5 0+            v+w+N.              x+y+    ",
"                                  ` ` *       z+A+!     i+B+C+*       D+E+F+      G+H+f+            I+J+!               k i.    ",
"  (+K+  ! N.              _ :     L+M+      ! N+O+P+        Q+3+      _ R+%       ] S+]             7 T+          *             ",
"  e+U+  V+W+              % _     X+Y+      p+Z+`+ @n       .@+@                    k _               *         * 4             ",
"  @@~   #@$@_                     ` n       ` %@&@*@        v :                     ! =@                          *   *         ",
"      -@;@>@,@                                '@)@-                       !@              %     % )       i.i       * ~@        ",
"* * % {@]@^@/@.+* * * * * * * * * * * * * * * 3 (@* * * * * * * * * * * 7 _@% * * * * * _ 4 * * : _ * * * :@<@* * * C+[@}@* * * ",
"|@|@1@2@3@4@5@6@|@|@|@|@|@|@7@8@|@|@9@|@|@|@|@9@0@|@|@|@|@|@|@|@|@|@|@|@a@b@a@|@|@|@|@|@|@c@|@|@|@|@|@|@|@d@e@|@|@f@g@h@i@6@|@|@",
"j@j@6@k@l@m@n@6@j@j@j@j@j@j@o@p@j@q@r@j@j@j@j@6@6@j@j@j@j@j@j@j@j@j@j@s@_@t@u@q@j@j@j@j@j@j@j@j@j@j@j@j@j@6@v@j@j@p.w@x@y@z@j@j@",
"6@6@6@6@A@B@6@6@6@6@6@6@6@6@C@D@6@E@F@a@6@6@6@6@6@6@6@6@G@H@v@6@6@6@6@I@J@K@L@M@6@6@6@6@6@6@6@6@6@6@6@6@6@6@6@6@6@&+N@O@P@Q@6@6@",
"6@6@6@6@a@R@6@6@6@6@6@6@6@6@6@6@6@S@T@a@6@6@6@6@6@6@6@6@G@U@V@6@6@6@6@W@X@Y@Z@W@6@6@6@6@6@6@6@6@6@6@6@6@`@6@6@6@6@6@Q@ #f@6@6@6@",
"6@6@6@6@6@q@6@6@6@W@Q@6@6@6@6@6@6@q@E@6@6@6@6@6@6@6@6@6@j@H@v@6@6@6@6@6@a@.#a@6@6@6@6@6@6@6@6@6@f@6@6@`@+#6@6@6@6@6@Q@@#f@6@6@6@",
"##################$#%#####################################################&###################*#=#*###*#-#############;#########",
">#>#>#>#>#>#>#>#>#,#'#)#>#>#>#>#>#>#>#>#>#!#>#>#>#>#~#>#>#>#>#>#>#>#>#>#>#~#>#>#>#{#]#>#>#>#>#^#/#(#>#>#~#>#>#>#>#>#>#>#>#>#>#>#",
">#>#>#>#>#>#>#>#>#_#:#>#>#>#>#>#>#>#>#>#>#<#!#>#>#[#}#>#>#>#>#>#>#>#>#>#>#>#>#>#>#|#1#>#>#>#>#2#3#)#>#>#>#>#>#>#~#>#>#>#>#>#>#>#",
">#>#>#>#>#>#>#>#>#~#4#>#>#>#>#>#>#>#>#>#>#5#>#>#>#6#7#>#>#>#>#8#9#>#>#>#>#>#>#>#>#0#a#>#>#>#>#~#b#>#>#>#>#>#>#>#c#d#>#>#>#>#>#>#",
">#>#>#>#>#>#>#>#>#>#>#>#>#>#>#>#e#>#>#>#>#>#>#>#>#f#g#~#>#>#>#{#h#i#>#>#>#>#>#>#>#j#k#>#>#>#>#>#>#>#>#>#>#>#>#>#l#m#>#>#>#>#>#>#",
">#>#>#>#>#>#>#>#>#>#>#>#>#>#>#n#o#~#>#>#>#>#>#>#>#p#q#>#>#>#>#r#s#]#>#>#>#>#>#>#>#>#>#>#>#>#>#>#>#>#>#>#>#>#>#[#t#u#[#>#>#>#>#>#",
"v#v#w#x#v#v#v#v#v#v#v#v#v#v#v#v#y#~#v#v#v#v#v#v#v#~#z#v#v#v#v#~#A#~#v#v#v#v#v#v#v#~#~#v#v#v#v#v#v#v#v#v#v#v#~#B#C#D#E#~#v#v#v#v#",
"F#F#G#H#I#F#F#F#F#F#F#F#F#F#F#F#F#F#F#F#F#F#F#F#F#I#I#F#F#F#F#F#F#F#F#F#F#F#F#F#F#I#J#I#F#F#F#F#F#F#F#F#F#F#I#_@K#L#M#I#F#F#F#F#",
"N#N#O#P#N#N#N#N#N#N#N#N#N#N#N#N#N#N#N#N#N#N#N#N#N#N#N#N#N#N#N#N#N#N#N#N#N#N#N#N#N#Q#R#S#N#N#N#N#N#N#N#N#N#N#N#N#T#U#N#N#N#N#N#N#",
"N#N#V#W#N#X#N#N#N#N#N#N#N#N#N#N#N#N#N#N#N#N#N#N#N#N#N#N#N#N#Y#N#N#N#N#N#N#N#N#N#N#Z#`# $N#N#N#N#N#N#N#N#N#N#N#N#.#.$N#N#N#N#N#N#",
"N#N#N#N#N#+$@$N#N##$$$N#N#N#N#N#N#N#N#N#N#N#N#N#N#N#N#N#N#%$&$N#N#N#N#N#N#N#N#N#*$=$-$;$>$N#N#N#N#N#N#6#6#N#N#N#u@6#N#N#N#N#N#N#",
"N#N#N#N#N#,$'$N#N#)$!$N#N#N#u@N#N#N#N#)$~$N#N#N#N#N#N#{$N#N#]$N#N#N#N#N#N#^$N#N#/$($_$:$<$N#N#N#N#N#N#[$}$N#N#N#N#N#N#N#N#N#N#N#",
"N#N#N#N#N#|$N#N#N#1$2$N#N#u@3$N#N#N#N#4$5$N#N#N#N#N#6$7$N#N#N#N#N#N#N#N#8$9$N#N#N#0$a$b$X#N#N#c$6#}$d$e$f$N#N#N#N#N#N#N#N#N#N#N#",
"N#N#N#N#N#N#N#N#N#N#u@N#N#}$g$N#N#N#N#h$i$N#N#N#N#N#j$7$N#N#N#N#N#N#N#N#8$k$N#N#N#l$m$n$N#N#N#o$p$N#q$r$N#N#N#N#N#N#s$V#N#N#N#N#",
"N#N#N#N#N#N#N#N#N#N#N#N#u@t$u$_@N#N#N#N#N#N#N#N#N#N#N#{$N#N#N#N#N#N#N#N#N#^$N#N#N#X#v$X#N#N#N#w$N#{$x$y$N#N#N#N#N#z$A$~$N#N#N#N#",
"}$}$}$}$}$}$}$}$}$}$}$}$B$C$D$E$F$}$}$}$}$}$}$}$}$}$}$}$}$}$}$}$}$}$}$}$}$}$}$}$}$}$G$}$}$}$}$}$}$H$I$M#}$J$K$_@}$L$M$i$}$}$}$}$",
"N$N$N$O$N$N$N$N$N$N$N$N$P$Q$C$R$N$N$N$N$N$N$N$N$N$N$N$N$N$N$N$N$N$N$N$N$N$N$N$N$N$N$N$N$N$N$N$N$S$T$U$N$N$V$W$X$N$N$Y$N$N$N$N$N$",
"P$P$P$Z$O$P$`$ %P$P$P$P$P$R$.%P$P$P$P$P$P$+%S$`$ %P$P$P$P$P$P$P$P$P$P$P$P$P$P$P$P$P$P$P$P$P$P$+%@%#%P$P$P$$%%%&%P$P$P$ %P$P$P$P$",
"P$P$P$*%=%P$-%;%P$P$P$P$P$+%>%P$P$P$P$P$P$,%'%)%;%P$P$P$P$P$P$P$P$P$P$P$P$P$P$P$P$P$P$P$P$P$P$!%~%{%P$P$P$]%^%/%P$P$P$(%B$P$P$P$",
"P$P$P$=%P$P$_%/%P$P$P$P$P$P$+%P$P$P$P$P$P$O$:%<%/%P$P$P$P$P$P$P$P$P$P$[%+%P$P$P$P$P$P$P$P$P$}%|%1%+%P$P$P$P$P$P$P$Y$P$2%;%P$P$P$",
"P$P$P$P$P$P$P$P$P$P$P$P$P$P$P$P$P$P$P$P$P$P$P$P$P$P$P$P$P$P$P$P$P$P$R$3%4%P$P$P$P$P$P$P$P$P$5%6%7%P$P$P$P$P$P$P$8%9%P$0% %P$P$P$",
"P$a%P$P$P$P$P$B$b%P$P$P$P$P$P$P$P$P$P$P$P$P$P$P$P$P$P$P$P$P$P$P$P$P$c%d%e%P$P$P$P$P$P$P$P$P$f%g%h%P$P$P$P$P$P$P$i%j%P$P$P$P$P$P$",
"a%k%P$P$P$P$P$l%m%P$P$P$P$P$P$P$P$P$P$P$P$P$0% %P$P$n%P$P$P$P$P$P$P$P$o%R$P$P$P$P$P$P$P$a%a%p%q%O$P$P$P$P$P$P$P$ %r%P$P$P$P$P$P$",
"a%s%P$P$P$P$P$t%u%P$P$P$P$P$P$P$P$P$P$P$P$P$v%;%P$P$w%x%P$P$P$P$P$P$P$P$P$P$P$P$P$P$P$P$k%y%O$=%P$P$P$P$P$P$z%A%P$P$P$P$P$P$P$P$",
"P$a%P$P$/%B%P$X$C%P$P$P$P$D%/%P$P$z%P$P$P$P$E%/%P$P$x%P$P$P$P$P$P$P$P$P$P$P$P$P$P$P$P$P$n%F%P$P$P$P$P$P$P$P$G%H%P$P$P$P$P$P$P$P$",
"P$P$P$P$I%J%P$P$P$P$P$P$P$K%;%P$z%L%P$P$P$P$P$P$P$P$P$P$P$P$P$P$P$P$P$P$P$P$P$P$P$P$P$P$P$P$P$P$P$P$P$P$P$P$M%N%P$P$P$P$P$P$P$P$",
"P$P$P$P$/%0%P$P$P$P$P$P$P$D%/%P$A%O%z%P$P$P$P$P$P$P$P$P$P$P$S$P$P$P$P$P$P$P$P$P$P%P$P$P$P$P$P$P$P$P$P$P$P$P$P$z%P$P$P$P$P$P$P$P$",
"P$P$P$P$P$P$P$P$P$P$P$P$P$P$P$P$P$Q%P$P$P$P$P$P$P$P$P$P$P$S$R%P$P$P$P$P$P$P$P$P$S%n%P$P$P$P$P$P$P$P$P$P$P$P$P$P$P$P$P$P$P$P$P$P$",
"P$P$P$P$P$P$P$P$P$P$P$P$P$P$P$P$P$P$P$P$P$P$P$P$P$P$P$P$P$P$T%P$P$P$P$P$P$P$P$P$P%P$P$P$P$P$P$P$P$P$P$P$P$P$P$P$P$P$P$P$P$P$P$P$"};
