/* XPM */
static char * monster_xpm[] = {
"64 51 252 2",
"  	c None",
". 	c #000000",
"+ 	c #6A696A",
"@ 	c #535353",
"# 	c #4B4B4B",
"$ 	c #333333",
"% 	c #232323",
"& 	c #1B1B1B",
"* 	c #131313",
"= 	c #2B2B2B",
"- 	c #434343",
"; 	c #737373",
"> 	c #8C8C8C",
", 	c #0C0B0B",
"' 	c #070805",
") 	c #000000",
"! 	c #3B3B3B",
"~ 	c #5B5B5B",
"{ 	c #171815",
"] 	c #04090D",
"^ 	c #091219",
"/ 	c #838383",
"( 	c #0F100D",
"_ 	c #9B9B9B",
": 	c #72726E",
"< 	c #0A0D11",
"[ 	c #15130C",
"} 	c #949494",
"| 	c #B3B3B3",
"1 	c #E1E1E1",
"2 	c #D8D8D8",
"3 	c #C8C8C8",
"4 	c #BCBCBC",
"5 	c #7B7B7B",
"6 	c #646364",
"7 	c #0B0905",
"8 	c #E0D6D8",
"9 	c #A7A7A7",
"0 	c #BCBAC5",
"a 	c #BEC2B7",
"b 	c #CBD7D0",
"c 	c #DDE3E0",
"d 	c #D9E2D7",
"e 	c #D0CEDA",
"f 	c #D2D5CB",
"g 	c #7A7B75",
"h 	c #1B1815",
"i 	c #E6E3EB",
"j 	c #E2E2DB",
"k 	c #EAEAEA",
"l 	c #B6BFBD",
"m 	c #B5B3BC",
"n 	c #8E9592",
"o 	c #CCD1C7",
"p 	c #363A39",
"q 	c #6F7066",
"r 	c #B4ADAF",
"s 	c #C2BFCA",
"t 	c #100F11",
"u 	c #8B8C85",
"v 	c #D9D7E1",
"w 	c #16181A",
"x 	c #1F201C",
"y 	c #E0DEE2",
"z 	c #272823",
"A 	c #363833",
"B 	c #13212C",
"C 	c #110D0B",
"D 	c #C4BCBE",
"E 	c #84838C",
"F 	c #9A99A2",
"G 	c #080708",
"H 	c #364047",
"I 	c #7E8077",
"J 	c #B8B4B6",
"K 	c #93948D",
"L 	c #A09EA5",
"M 	c #605E62",
"N 	c #514F54",
"O 	c #585659",
"P 	c #302F31",
"Q 	c #393433",
"R 	c #65636A",
"S 	c #6C6A73",
"T 	c #A2A39B",
"U 	c #CAC8D4",
"V 	c #8E8687",
"W 	c #7E8280",
"X 	c #827C7C",
"Y 	c #1A1512",
"Z 	c #544C47",
"` 	c #7C7A82",
" .	c #BDC7C4",
"..	c #666861",
"+.	c #ABA9B4",
"@.	c #252529",
"#.	c #B4B5AC",
"$.	c #1D1C21",
"%.	c #4D4C53",
"&.	c #878C8A",
"*.	c #43423D",
"=.	c #555359",
"-.	c #807E86",
";.	c #2D2D31",
">.	c #292925",
",.	c #282319",
"'.	c #353439",
").	c #5D5B62",
"!.	c #95949B",
"~.	c #444449",
"{.	c #161519",
"].	c #241C17",
"^.	c #595354",
"/.	c #201F22",
"(.	c #4F514B",
"_.	c #969E9C",
":.	c #585954",
"<.	c #050608",
"[.	c #080605",
"}.	c #3D3C42",
"|.	c #181719",
"1.	c #75737B",
"2.	c #393935",
"3.	c #999395",
"4.	c #8F9187",
"5.	c #686669",
"6.	c #2A2521",
"7.	c #372B24",
"8.	c #282729",
"9.	c #464842",
"0.	c #BABAB4",
"a.	c #53524E",
"b.	c #AFB1A4",
"c.	c #82837C",
"d.	c #3A3029",
"e.	c #9B9C93",
"f.	c #777970",
"g.	c #928F97",
"h.	c #8C8B93",
"i.	c #403E42",
"j.	c #ABB4B1",
"k.	c #464948",
"l.	c #878A80",
"m.	c #5F6159",
"n.	c #746C6A",
"o.	c #484649",
"p.	c #494945",
"q.	c #4C3B31",
"r.	c #3F413B",
"s.	c #6A6463",
"t.	c #B1AFBA",
"u.	c #63625D",
"v.	c #706F76",
"w.	c #645C59",
"x.	c #696965",
"y.	c #C3C4BD",
"z.	c #F0F0F0",
"A.	c #584438",
"B.	c #503E33",
"C.	c #614B3D",
"D.	c #876956",
"E.	c #6A5243",
"F.	c #9B7862",
"G.	c #AA836B",
"H.	c #B48B72",
"I.	c #93725D",
"J.	c #A27D66",
"K.	c #BA937C",
"L.	c #45352B",
"M.	c #755B4A",
"N.	c #7D6150",
"O.	c #B0886E",
"P.	c #8F705B",
"Q.	c #7D604E",
"R.	c #AB8372",
"S.	c #31251E",
"T.	c #644E40",
"U.	c #B99B89",
"V.	c #906F5B",
"W.	c #775E51",
"X.	c #D1CCE3",
"Y.	c #81756D",
"Z.	c #7B7474",
"`.	c #968D8C",
" +	c #C2BFD3",
".+	c #484445",
"++	c #B4AFC9",
"@+	c #906D60",
"#+	c #D7E0CC",
"$+	c #38363B",
"%+	c #0C1A24",
"&+	c #122837",
"*+	c #1C3C55",
"=+	c #224966",
"-+	c #285678",
";+	c #A0999B",
">+	c #193549",
",+	c #30678D",
"'+	c #3879A8",
")+	c #3D83B6",
"!+	c #418CC2",
"~+	c #4493CB",
"{+	c #3D7FB2",
"]+	c #4DA6E5",
"^+	c #54B5FB",
"/+	c #489BD6",
"(+	c #4088BD",
"_+	c #316993",
":+	c #4BA1DE",
"<+	c #2B5C81",
"[+	c #152D40",
"}+	c #51AEF2",
"|+	c #50AAEC",
"1+	c #1E415A",
"2+	c #0F202C",
"3+	c #35719C",
"4+	c #2F6590",
"5+	c #25506E",
"6+	c #20445D",
"7+	c #0F1F30",
"8+	c #3E84C3",
"9+	c #54B6EC",
"0+	c #234B71",
"a+	c #6DBDF8",
"b+	c #445662",
"c+	c #395E7A",
"d+	c #2E6389",
"e+	c #57AADD",
"f+	c #4EA4F4",
"g+	c #4AA1CF",
"h+	c #4798E2",
"i+	c #203E54",
"j+	c #57572A",
"k+	c #98984A",
"l+	c #37371B",
"m+	c #767639",
"n+	c #C9C962",
"o+	c #676732",
"p+	c #A8A852",
"q+	c #888842",
"r+	c #474723",
"s+	c #B7B759",
"t+	c #D8D86A",
"u+	c #21210C",
"v+	c #40401F",
"w+	c #A0A04E",
"x+	c #E2E26E",
"y+	c #E5E570",
"z+	c #61612F",
"A+	c #C1C15E",
"B+	c #80803F",
"C+	c #E1E15A",
"                                                                                                                                ",
"                                                                                                                                ",
"            }                                                                                                                   ",
"            / 3 3 | /                                                                                                           ",
"                J 1 1 o r 5                                                                                                     ",
"                  L 2 1 1 y 3 L                                                                                                 ",
"                    &.3 1 1 1 1 f _                                                                                             ",
"                      9 1 1 1 1 1 1 4                                                                                           ",
"                        4 2 1 1 1 1 1 f }                                                                                       ",
"                        g 2 2 1 1 1 y 2 1 J                 M 9 f _                                                             ",
"                          _ 1 2 1 1 1 2 2 1 3               5 3 3 L                                                             ",
"                            y.2 2 1 1 1 y o 1 f             g 9 +                                                               ",
"                              y y 2 1 1 1 1 3 1 2           9 y.r                                                               ",
"                              4 1 2 2 1 1 1 1 1 y f       T 1 1 1 f 2 o y.3 y.g                                                 ",
"                                1 1 2 1 1 3 f 3 y.| 5 9 2 1 1 1 1 1 1 1 2 3 3 3 3 9                                             ",
"                                | f o f 2 4 3 y.9 9 4 1 1 1 1 1 1 1 1 1 1 1 1 1 1 y L 2 3.9 J L                                 ",
"                                  3 3 f 3 3 r } y 2 1 1 1 1 1 1 1 1 1 1 1 1 1 1 2 r 2 y L 1 1 f y 4 _                           ",
"                                  9 2 f J 3.2 1 1 2 1 1 1 1 1 1 1 1 1 1 1 1 1 2 y.1 2 _ 2 3 D l.`.V f 4 9                       ",
"                                  6 y.} f 2 1 1 1 3.2 1 1 1 1 1 1 1 1 1 1 1 1 1 1 1 2 | J X J.H.G.V Y.4 2 o /                   ",
"                                  > 9 4 f 1 1 f y.&.3 o 1 1 1 1 2 3 y.f 2 y 1 1 1 2 } 2 J.O.H.H.H.O.Y.L y.2 2 }                 ",
"                                5._ f 1 1 1 1 4 _ J 4 L 2 1 2 L n L / / / y.2 1 1 3 J 9 H.H.H.H.H.G.I.c.y.1 1 2                 ",
"                                : 9 1 1 1 1 1 1 1 M y 1 y e 6 W _ | | r &.&.| 2 2 L r I.H.O.I.F.G.G.H.V.9 1 1 1 4               ",
"                                + } 1 1 1 1 1 1 3 , f y 1 L ; 3 y 3 2 4 ; ` 5 f f y.T H.J.D.r W.F.O.O.@+f 1 1 1 y               ",
"                                  n 1 1 1 1 1 1 9 P r 1 2 ~ 4 2 3 y 2 ; ~ _ 5 r L 3 T O.> s.2 y.| X g 2 1 1 1 1 1 |             ",
"                                  > 3 3 3 3 2 y f f 3 1 | ; f o y 3 6 ~ : ~ M L 3 3 _ F.c.3 2 4 3 4 1 1 1 1 1 1 1 y.            ",
"            = & M 3.} 3.L L 9 } > 9 9 9 > _ 9 } > ; / 9 _ / 2 M 5.+ + o.; - > : s 3 2 V M.9 1 1 3 3 1 y 1 1 1 1 1 y             ",
"                                @ / | | J 9 9 9 } } _ 9 9 W 1 : M @ @ M @ @ _ M } o 1 y +./+!.4 o 1 1 1 1 1 1 1 1 1 `           ",
"                                5 9 1 1 1 1 1 1 1 1 1 1 4 / y.3 M ; / 6 @ M ; y.3 f 1 2 !.}+|++.1 1 1 1 1 y 3 2 1 1 _           ",
"                                &.3 1 f y.3 3 3 3 2 1 1 1 / > y.O 6 6 + k.M L 1 f 9 | r h.(+}+~+J 1 1 1 1 4 L 3 1 1 _           ",
"                                > y.1 2 9 > L 5 _ _ L 1 1 3 > _ / : O W n _ y 1 2 f 4 _ ` !+3+E r J 0.y.4 } r y.1 r >           ",
"                                : y.2 1 J _ _ 5 > } T 1 1 1 2 9 L > > L y.1 1 1 1 1 L ; } 2 t.h.o 4 4 4 J | f y.r 4 n           ",
"                                @ r 3 3 f 2 2 2 2 y 1 1 1 1 1 1 1 1 y 1 1 1 1 1 1 1 2 3 3 2 f 3 | 1 1 1 1 | 9 9 4 2             ",
"                                    _ 3 f 3 3 5 > 6 | 4 1 1 1 1 1 1 1 f > 9 J 1 1 1 1 | J > 1 f 3 | 4 4 J } 4 3 y J             ",
"                                    ; } f 2 o 3 J > > 9 3 y 1 1 1 1 1 3 9 | 3 1 1 1 1 J _ _ y 1 J _ f J 3 2 2 1 2               ",
"                                    } / n o 3 3 3 o 3 f 3 f f 1 2 M J f ; L 3 2 2 2 f | > n 1 y J 3 f 9 2 1 2 2 _               ",
"                                  9 2 4 _ 9 _ 3 4 J 3 | 4 3 3 3 9 g 9 1 _ L 4 3 y.y.y.4 _ 3 3 y.3 y.4 y.3 3 3 _                 ",
"                                  3 1 1 2 y.J 9 4 y.r 4 4 3 y.4 > 3.n | 4 4 | 9 4 > | 9 3 3 } | | 9 } 3.4 y.5                   ",
"                                / 1 1 1 y 2 o o r _ L r r y.3 o n L > 4 1 9 2 3 | 3 1 1 1 1 > } L r _ L L } r                   ",
"                                3 1 1 o 1 1 1 1 3 3 9 +     + ; > } } L o k+r 3 3 3 3 r 3 o W W W } : 5 / g &.                  ",
"                              9 1 1 f y 1 1 1 1 1 2             5 9 4 &.K A+U.4 3 4 > L 3 3 : / > > / > L 9 W                   ",
"                              2 1 2 2 1 2 3 1 1 f                   / ~ : q I L / r J | r 9 M 5 L _ ; / 5 # .+                  ",
"                            3 1 2 2 1 2 f 1 1 3 :                     ~ : # # (.5.M + O 6 W         O 5.    /                   ",
"                          3 1 2 2 2 2 y 1 1 r                                                                                   ",
"                        3 1 2 y y y 1 1 f _                                                                                     ",
"                      y.1 y 1 1 1 1 f 9                                                                                         ",
"                  _ 2 1 1 1 1 2 y.L                                                                                             ",
"                4 2 2 2 3 J 9                                                                                                   ",
"            / | 9 _                                                                                                             ",
"                                                                                                                                ",
"                                                                                                                                ",
"                                                                                                                                "};
